<svg viewBox="0 0 400 220" fill="none" xmlns="http://www.w3.org/2000/svg">
  <rect width="400" height="220" rx="32" fill="#F8FAFF"/>
  
  <defs>
    <linearGradient id="shieldGrad" x1="0%" y1="0%" x2="0%" y2="100%">
      <stop offset="0%" style="stop-color:#E6F0FF;stop-opacity:1" />
      <stop offset="100%" style="stop-color:#5B8DEF;stop-opacity:1" />
    </linearGradient>
  </defs>
  
  <!-- Shield centered -->
  <g transform="translate(200,110)">
    <!-- Shield shape -->
    <path d="M0 -60 L-50 -40 L-50 10 Q-50 50 -25 70 Q0 90 0 90 Q0 90 25 70 Q50 50 50 10 L50 -40 L0 -60 Z" 
          fill="url(#shieldGrad)" stroke="#2B4C8C" stroke-width="3"/>
    
    <!-- Strategy icons inside shield -->
    <!-- Roadmap lines -->
    <g stroke="#2B4C8C" stroke-width="2.5" fill="none">
      <path d="M-20 -30 L-10 -20 L0 -10 L10 0 L20 10"/>
      <circle cx="-20" cy="-30" r="4" fill="#2B4C8C"/>
      <circle cx="-10" cy="-20" r="4" fill="#2B4C8C"/>
      <circle cx="0" cy="-10" r="4" fill="#2B4C8C"/>
      <circle cx="10" cy="0" r="4" fill="#2B4C8C"/>
      <circle cx="20" cy="10" r="4" fill="#2B4C8C"/>
    </g>
    
    <!-- Growth arrow -->
    <g transform="translate(0,35)">
      <path d="M-15 5 L-5 -5 L5 0 L15 -10" stroke="#2B4C8C" stroke-width="3" fill="none"/>
      <path d="M15 -10 L10 -8 L12 -13" stroke="#2B4C8C" stroke-width="3" fill="none"/>
    </g>
  </g>
</svg>