<svg viewBox="0 0 400 220" fill="none" xmlns="http://www.w3.org/2000/svg">
  <rect width="400" height="220" rx="28" fill="#F8FBFF"/>
  <!-- Doctor figure -->
  <ellipse cx="100" cy="150" rx="68" ry="60" fill="#EAF1FE" />
  <path d="M80 155 a20 26 0 1 1 40 0" fill="#F7D7CA" />
  <ellipse cx="100" cy="115" rx="38" ry="40" fill="#2B3A53"/>
  <ellipse cx="100" cy="130" rx="30" ry="32" fill="#FFF" />
  <ellipse cx="100" cy="140" rx="22" ry="20" fill="#F7D7CA" />
  <rect x="63" y="167" width="75" height="28" rx="14" fill="#C2A7F8" />
  <!-- Stethoscope -->
  <path d="M88 160 q-14 24 18 20" stroke="#2B3A53" stroke-width="4" fill="none"/>
  <circle cx="80" cy="181" r="7" fill="#A3C6F8" stroke="#2B3A53" stroke-width="2"/>
  <!-- ID card -->
  <rect x="140" y="65" width="56" height="58" rx="10" fill="#E6EFFF" stroke="#B7C7ED" stroke-width="2"/>
  <rect x="153" y="82" width="30" height="22" rx="5" fill="#A3C6F8"/>
  <rect x="160" y="110" width="16" height="3" rx="1.5" fill="#B7C7ED"/>
  <rect x="152" y="118" width="32" height="3" rx="1.5" fill="#B7C7ED"/>
  <!-- Brain (AI) -->
  <ellipse cx="280" cy="120" rx="44" ry="36" fill="#B4C2FA" stroke="#373C52" stroke-width="5"/>
  <circle cx="262" cy="118" r="6" fill="#FFF" stroke="#6F3AFC" stroke-width="3"/>
  <circle cx="298" cy="110" r="5" fill="#FFF" stroke="#6F3AFC" stroke-width="3"/>
  <circle cx="282" cy="138" r="5" fill="#FFF" stroke="#6F3AFC" stroke-width="3"/>
  <path d="M262 118 Q282 120 298 110 M282 138 Q273 130 262 118" stroke="#6F3AFC" stroke-width="3" fill="none"/>
  <!-- GDPR Shield -->
  <path d="M210 145 Q240 135 265 150 Q267 185 238 195 Q210 185 210 145Z" fill="#EAF1FE" stroke="#373C52" stroke-width="4"/>
  <text x="225" y="160" font-family="Arial" font-size="19" font-weight="bold" fill="#2B3A53">GDPR</text>
  <rect x="225" y="165" width="18" height="13" rx="3" fill="#A3C6F8" stroke="#2B3A53" stroke-width="2"/>
  <circle cx="234" cy="170" r="2" fill="#2B3A53"/>
  <path d="M234 178 v-4" stroke="#2B3A53" stroke-width="2"/>
</svg>
