<svg viewBox="0 0 400 300" xmlns="http://www.w3.org/2000/svg" aria-label="AutoMind Logo">
    <!-- Human head profile in purple -->
    <path d="M50 250 Q30 200 40 150 Q45 100 80 70 Q120 40 160 45 Q200 50 220 80 Q240 110 235 150 Q230 190 210 220 Q190 240 170 245 Q150 250 130 245 Q110 240 90 230 Q70 220 60 200 L50 250 Z" fill="#8338ec"/>
    <!-- Inner head space (white) -->
    <path d="M70 220 Q60 180 65 140 Q70 110 90 90 Q115 75 145 78 Q175 80 190 100 Q205 120 200 150 Q195 180 180 200 Q165 210 150 212 Q135 215 120 210 Q105 205 90 195 Q80 185 75 170 L70 220 Z" fill="white"/>
    <!-- AI circuit pattern in blue -->
    <g fill="#3a86ff">
        <path d="M200 80 Q240 85 270 110 Q290 135 285 165 Q280 195 260 215 Q240 230 215 225 Q190 220 175 200 Q165 180 170 155 Q175 130 190 110 Q200 95 200 80 Z" fill="#5bc0de"/>
        <circle cx="220" cy="120" r="8" fill="white"/>
        <circle cx="240" cy="140" r="6" fill="white"/>
        <circle cx="210" cy="160" r="7" fill="white"/>
        <circle cx="250" cy="180" r="5" fill="white"/>
        <line x1="220" y1="120" x2="240" y2="140" stroke="white" stroke-width="3"/>
        <line x1="240" y1="140" x2="210" y2="160" stroke="white" stroke-width="3"/>
        <line x1="210" y1="160" x2="250" y2="180" stroke="white" stroke-width="3"/>
        <line x1="220" y1="120" x2="210" y2="160" stroke="white" stroke-width="2"/>
    </g>
    <text x="300" y="180" font-family="Arial, sans-serif" font-size="60" font-weight="bold" fill="#8338ec">.AI</text>
</svg>
