<svg viewBox="0 0 400 220" fill="none" xmlns="http://www.w3.org/2000/svg">
  <rect width="400" height="220" rx="28" fill="#F8FAFF"/>
  <!-- Woman figure -->
  <ellipse cx="90" cy="145" rx="65" ry="54" fill="#EAF1FE"/>
  <ellipse cx="92" cy="118" rx="38" ry="38" fill="#2B3A53"/>
  <ellipse cx="92" cy="130" rx="26" ry="26" fill="#699CF7"/>
  <ellipse cx="92" cy="139" rx="19" ry="19" fill="#F7D7CA"/>
  <!-- Collar -->
  <path d="M80 157 l12 11 l12-11" stroke="#2B3A53" stroke-width="2" fill="#699CF7"/>
  <!-- Chart background -->
  <rect x="145" y="70" width="80" height="60" rx="10" fill="#EAF1FE" stroke="#B7C7ED" stroke-width="2"/>
  <!-- Analytics line -->
  <polyline points="160,115 175,100 190,110 205,90 215,115" fill="none" stroke="#6F3AFC" stroke-width="4"/>
  <circle cx="160" cy="115" r="4" fill="#A3C6F8"/>
  <circle cx="175" cy="100" r="4" fill="#A3C6F8"/>
  <circle cx="190" cy="110" r="4" fill="#A3C6F8"/>
  <circle cx="205" cy="90" r="4" fill="#A3C6F8"/>
  <circle cx="215" cy="115" r="4" fill="#A3C6F8"/>
  <!-- Open box -->
  <rect x="250" y="128" width="62" height="36" rx="5" fill="#A3C6F8" stroke="#2B3A53" stroke-width="3"/>
  <polygon points="250,128 281,110 312,128 281,146" fill="#EAF1FE" stroke="#2B3A53" stroke-width="2"/>
  <!-- Arrow up -->
  <polygon points="281,98 271,115 291,115" fill="#699CF7"/>
</svg>
