<svg viewBox="0 0 400 220" fill="none" xmlns="http://www.w3.org/2000/svg">
  <rect width="400" height="220" rx="28" fill="#F8FAFF"/>
  <!-- Table -->
  <rect x="20" y="160" width="360" height="38" rx="10" fill="#EAF1FE"/>
  <!-- Small robotic arm -->
  <g>
    <rect x="60" y="130" width="38" height="18" rx="8" fill="#6F3AFC"/>
    <rect x="74" y="118" width="12" height="24" rx="6" fill="#A3C6F8"/>
    <circle cx="80" cy="116" r="8" fill="#373C52"/>
    <line x1="80" y1="116" x2="98" y2="105" stroke="#373C52" stroke-width="5"/>
    <polyline points="98,105 108,116 102,120" fill="none" stroke="#373C52" stroke-width="5"/>
  </g>
  <!-- Main robotic arm -->
  <g>
    <rect x="270" y="68" width="40" height="35" rx="8" fill="#2B3A53"/>
    <rect x="290" y="40" width="15" height="38" rx="7" fill="#A3C6F8"/>
    <circle cx="297" cy="40" r="7" fill="#373C52"/>
    <rect x="240" y="85" width="45" height="18" rx="7" fill="#6F3AFC"/>
    <line x1="310" y1="50" x2="340" y2="60" stroke="#2B3A53" stroke-width="8" />
    <rect x="338" y="60" width="16" height="16" rx="4" fill="#A3C6F8"/>
  </g>
  <!-- T-shirt -->
  <g>
    <rect x="150" y="120" width="110" height="55" rx="22" fill="#FFF" stroke="#373C52" stroke-width="3"/>
    <ellipse cx="205" cy="147" rx="32" ry="28" fill="#F8FBFF" stroke="#6F3AFC" stroke-width="4"/>
    <!-- Logo on t-shirt -->
    <polygon points="193,147 205,130 217,147 205,153" fill="none" stroke="#6F3AFC" stroke-width="3"/>
    <polyline points="205,130 205,153" fill="none" stroke="#6F3AFC" stroke-width="3"/>
  </g>
</svg>
