<svg viewBox="0 0 400 220" fill="none" xmlns="http://www.w3.org/2000/svg">
  <rect width="400" height="220" rx="32" fill="#F8FAFF"/>
  
  <defs>
    <linearGradient id="robotGrad" x1="0%" y1="0%" x2="0%" y2="100%">
      <stop offset="0%" style="stop-color:#B3D1FF;stop-opacity:1" />
      <stop offset="100%" style="stop-color:#5B8DEF;stop-opacity:1" />
    </linearGradient>
    <linearGradient id="baseGrad" x1="0%" y1="0%" x2="0%" y2="100%">
      <stop offset="0%" style="stop-color:#4A6FA5;stop-opacity:1" />
      <stop offset="100%" style="stop-color:#2B4C8C;stop-opacity:1" />
    </linearGradient>
  </defs>
  
  <!-- Robot arm system -->
  <g transform="translate(200,110)">
    <!-- Base platform -->
    <rect x="-60" y="50" width="120" height="25" rx="5" fill="url(#baseGrad)" stroke="#1A3A6B" stroke-width="2"/>
    
    <!-- Base joint -->
    <circle cx="0" cy="50" r="18" fill="#4A6FA5" stroke="#2B4C8C" stroke-width="2"/>
    <circle cx="0" cy="50" r="8" fill="#2B4C8C"/>
    
    <!-- Lower arm segment -->
    <rect x="-12" y="-20" width="24" height="70" rx="12" fill="url(#robotGrad)" stroke="#2B4C8C" stroke-width="2"/>
    
    <!-- Middle joint -->
    <circle cx="0" cy="-20" r="15" fill="#4A6FA5" stroke="#2B4C8C" stroke-width="2"/>
    <circle cx="0" cy="-20" r="6" fill="#2B4C8C"/>
    
    <!-- Upper arm segment (rotated) -->
    <g transform="rotate(-35, 0, -20)">
      <rect x="-10" y="-70" width="20" height="50" rx="10" fill="url(#robotGrad)" stroke="#2B4C8C" stroke-width="2"/>
      
      <!-- End joint -->
      <circle cx="0" cy="-70" r="12" fill="#4A6FA5" stroke="#2B4C8C" stroke-width="2"/>
      
      <!-- Gripper -->
      <g transform="translate(0,-82)">
        <!-- Gripper base -->
        <rect x="-8" y="-5" width="16" height="10" rx="2" fill="#2B4C8C"/>
        
        <!-- Gripper fingers -->
        <path d="M-12 0 L-10 -15 L-6 -18 L-4 -15 L-4 0" fill="#5B8DEF" stroke="#2B4C8C" stroke-width="1.5"/>
        <path d="M12 0 L10 -15 L6 -18 L4 -15 L4 0" fill="#5B8DEF" stroke="#2B4C8C" stroke-width="1.5"/>
        
        <!-- Held object (product) -->
        <rect x="-6" y="-10" width="12" height="12" rx="2" fill="#FF6B6B" opacity="0.8"/>
      </g>
    </g>
    
    <!-- Control indicators -->
    <g transform="translate(-80,-30)">
      <rect x="-15" y="-10" width="30" height="20" rx="3" fill="#2B4C8C" opacity="0.9"/>
      <circle cx="-5" cy="0" r="2" fill="#4EE84E">
        <animate attributeName="opacity" values="0.3;1;0.3" dur="2s" repeatCount="indefinite"/>
      </circle>
      <circle cx="5" cy="0" r="2" fill="#FFD93D">
        <animate attributeName="opacity" values="0.3;1;0.3" dur="2s" begin="0.5s" repeatCount="indefinite"/>
      </circle>
    </g>
    
    <!-- Data flow lines -->
    <g stroke="#5B8DEF" stroke-width="1.5" fill="none" opacity="0.6">
      <path d="M-65 -30 Q-40 -25 0 -20" stroke-dasharray="3,3">
        <animate attributeName="stroke-dashoffset" values="0;6" dur="1s" repeatCount="indefinite"/>
      </path>
    </g>
  </g>
</svg>